<svg width="133" height="40" viewBox="0 0 133 40" fill="none" xmlns="http://www.w3.org/2000/svg">
<path d="M9.14281 39.9984C8.80174 39.9984 8.46891 39.9943 8.13052 39.9872C7.42952 39.9787 6.73016 39.9217 6.03817 39.8167C5.39292 39.7128 4.76785 39.5197 4.18358 39.2437C3.60466 38.97 3.07664 38.611 2.61975 38.1807C2.15624 37.7554 1.77035 37.2621 1.47737 36.7203C1.18115 36.1751 0.976159 35.5907 0.86952 34.9874C0.754359 34.3392 0.692052 33.6838 0.683136 33.0267C0.676039 32.8062 0.666748 32.0719 0.666748 32.0719V7.91572C0.666748 7.91572 0.676644 7.19272 0.683192 6.98031C0.691729 6.32432 0.753674 5.66989 0.86849 5.02269C0.975326 4.41777 1.18048 3.83166 1.47685 3.28464C1.76876 2.74329 2.15251 2.24964 2.61322 1.8228C3.07342 1.39192 3.60313 1.03113 4.18303 0.75361C4.76596 0.47847 5.38985 0.28673 6.03379 0.184813C6.72805 0.0787442 7.42985 0.0213981 8.13328 0.0132563L9.14335 0.000488281H124.185L125.207 0.0137687C125.904 0.021506 126.599 0.0783404 127.287 0.183788C127.938 0.286983 128.568 0.480061 129.158 0.756674C130.319 1.31596 131.265 2.20081 131.861 3.28719C132.153 3.83043 132.355 4.41177 132.46 5.01146C132.576 5.66397 132.641 6.32354 132.655 6.98491C132.658 7.28105 132.658 7.59915 132.658 7.91572C132.667 8.30786 132.667 8.6811 132.667 9.05741V30.9425C132.667 31.3224 132.667 31.6931 132.658 32.0668C132.658 32.4068 132.658 32.7184 132.654 33.039C132.64 33.6885 132.577 34.3363 132.462 34.9772C132.358 35.5848 132.154 36.1738 131.858 36.7235C131.563 37.2593 131.179 37.7483 130.721 38.1725C130.264 38.6052 129.735 38.9662 129.154 39.2417C128.566 39.5199 127.937 39.7137 127.287 39.8167C126.595 39.9222 125.896 39.9792 125.195 39.9872C124.867 39.9943 124.524 39.9984 124.19 39.9984L122.977 40.0005L9.14281 39.9984Z" fill="white"/>
<path d="M30.1983 20.8542C30.2129 19.7197 30.5142 18.6073 31.0743 17.6205C31.6343 16.6337 32.4349 15.8047 33.4015 15.2104C32.7874 14.3335 31.9774 13.6118 31.0356 13.1027C30.0939 12.5935 29.0464 12.311 27.9764 12.2776C25.6938 12.038 23.481 13.6434 22.3179 13.6434C21.1322 13.6434 19.3414 12.3013 17.4129 12.341C16.1656 12.3813 14.9499 12.744 13.8844 13.3938C12.8189 14.0437 11.9399 14.9584 11.333 16.0489C8.70426 20.6003 10.6651 27.2894 13.1833 30.9684C14.4432 32.7699 15.9156 34.7822 17.8423 34.7109C19.7277 34.6327 20.4319 33.5086 22.7077 33.5086C24.9624 33.5086 25.6231 34.7109 27.5889 34.6655C29.612 34.6327 30.8866 32.856 32.1023 31.0374C33.0076 29.7538 33.7042 28.3351 34.1663 26.8339C32.9909 26.3368 31.9879 25.5046 31.2823 24.4413C30.5766 23.3779 30.1996 22.1304 30.1983 20.8542Z" fill="black"/>
<path d="M26.485 9.85799C27.588 8.53378 28.1315 6.83172 27.9999 5.11328C26.3146 5.29028 24.7579 6.09573 23.6399 7.36914C23.0933 7.99123 22.6747 8.71495 22.4079 9.49894C22.1412 10.2829 22.0315 11.1118 22.0853 11.9382C22.9283 11.9469 23.7622 11.7642 24.5243 11.4038C25.2863 11.0435 25.9567 10.515 26.485 9.85799Z" fill="black"/>
<path d="M46.5244 7.20789C46.9533 7.17711 47.3837 7.24191 47.7846 7.39762C48.1854 7.55332 48.5467 7.79605 48.8424 8.10829C49.1381 8.42054 49.3608 8.79452 49.4944 9.20325C49.6281 9.61198 49.6694 10.0453 49.6153 10.4719C49.6153 12.5705 48.4811 13.7768 46.5244 13.7768H44.1516V7.20789H46.5244ZM45.1719 12.8478H46.4104C46.7169 12.8662 47.0236 12.8159 47.3082 12.7007C47.5929 12.5856 47.8482 12.4084 48.0558 12.1821C48.2633 11.9558 48.4177 11.686 48.5078 11.3925C48.598 11.099 48.6215 10.7891 48.5767 10.4853C48.6182 10.1827 48.5923 9.87472 48.5008 9.58335C48.4093 9.29198 48.2545 9.02446 48.0474 8.79995C47.8404 8.57544 47.5863 8.39951 47.3032 8.28476C47.0202 8.17 46.7153 8.11927 46.4104 8.13619H45.1719V12.8478Z" fill="black"/>
<path d="M50.7672 11.2965C50.736 10.9707 50.7733 10.642 50.8766 10.3315C50.9799 10.021 51.147 9.73545 51.3671 9.49327C51.5872 9.25109 51.8555 9.05759 52.1548 8.92518C52.4541 8.79276 52.7777 8.72437 53.105 8.72437C53.4322 8.72437 53.7559 8.79276 54.0552 8.92518C54.3545 9.05759 54.6228 9.25109 54.8429 9.49327C55.063 9.73545 55.2301 10.021 55.3334 10.3315C55.4367 10.642 55.474 10.9707 55.4428 11.2965C55.4745 11.6226 55.4377 11.9518 55.3347 12.2628C55.2317 12.5738 55.0647 12.8599 54.8445 13.1025C54.6243 13.3452 54.3558 13.5391 54.0562 13.6718C53.7567 13.8045 53.4326 13.873 53.105 13.873C52.7773 13.873 52.4533 13.8045 52.1537 13.6718C51.8541 13.5391 51.5856 13.3452 51.3654 13.1025C51.1453 12.8599 50.9783 12.5738 50.8753 12.2628C50.7722 11.9518 50.7354 11.6226 50.7672 11.2965ZM54.4365 11.2965C54.4365 10.2219 53.9538 9.59354 53.1066 9.59354C52.2562 9.59354 51.7778 10.2219 51.7778 11.2965C51.7778 12.3797 52.2562 13.0032 53.1066 13.0032C53.9538 13.0032 54.4365 12.3754 54.4365 11.2965H54.4365Z" fill="black"/>
<path d="M61.659 13.7774H60.6441L59.6195 10.1263H59.5421L58.5218 13.7774H57.5166L56.1501 8.82007H57.1425L58.0305 12.6028H58.1036L59.1228 8.82007H60.0614L61.0806 12.6028H61.158L62.0417 8.82007H63.0201L61.659 13.7774Z" fill="black"/>
<path d="M64.1697 8.81981H65.1115V9.60732H65.1846C65.3086 9.32447 65.5178 9.08737 65.783 8.92905C66.0481 8.77074 66.3561 8.6991 66.6639 8.72412C66.9051 8.70598 67.1473 8.74235 67.3726 8.83053C67.5978 8.91871 67.8003 9.05644 67.9651 9.23351C68.1299 9.41058 68.2527 9.62247 68.3245 9.85346C68.3963 10.0845 68.4152 10.3286 68.3798 10.5679V13.7771H67.4014V10.8136C67.4014 10.0169 67.0553 9.62076 66.3317 9.62076C66.1679 9.61314 66.0045 9.64101 65.8525 9.70247C65.7005 9.76394 65.5636 9.85754 65.4512 9.97686C65.3387 10.0962 65.2534 10.2384 65.2011 10.3938C65.1488 10.5491 65.1307 10.714 65.148 10.877V13.7771H64.1697L64.1697 8.81981Z" fill="black"/>
<path d="M69.9382 6.88477H70.9166V13.7773H69.9382V6.88477Z" fill="black"/>
<path d="M72.2757 11.2966C72.2445 10.9708 72.2818 10.6421 72.3852 10.3315C72.4885 10.021 72.6556 9.73547 72.8757 9.49328C73.0959 9.2511 73.3642 9.05759 73.6635 8.92518C73.9628 8.79277 74.2865 8.72437 74.6138 8.72437C74.9411 8.72437 75.2647 8.79277 75.564 8.92518C75.8633 9.05759 76.1317 9.2511 76.3518 9.49328C76.5719 9.73547 76.739 10.021 76.8424 10.3315C76.9457 10.6421 76.983 10.9708 76.9518 11.2966C76.9836 11.6227 76.9467 11.9519 76.8436 12.2629C76.7406 12.5739 76.5736 12.86 76.3534 13.1026C76.1332 13.3453 75.8647 13.5392 75.5651 13.6719C75.2655 13.8045 74.9414 13.8731 74.6138 13.8731C74.2861 13.8731 73.9621 13.8045 73.6625 13.6719C73.3629 13.5392 73.0943 13.3453 72.8742 13.1026C72.654 12.86 72.487 12.5739 72.3839 12.2629C72.2808 11.9519 72.244 11.6227 72.2757 11.2966ZM75.945 11.2966C75.945 10.222 75.4623 9.59363 74.6151 9.59363C73.7647 9.59363 73.2863 10.222 73.2863 11.2966C73.2863 12.3798 73.7647 13.0033 74.6151 13.0033C75.4623 13.0033 75.945 12.3755 75.945 11.2966H75.945Z" fill="black"/>
<path d="M77.9824 12.3754C77.9824 11.4831 78.6468 10.9686 79.8262 10.8955L81.169 10.8181V10.3902C81.169 9.86666 80.8228 9.57101 80.1541 9.57101C79.608 9.57101 79.2296 9.77151 79.121 10.122H78.1738C78.2738 9.27051 79.0747 8.72437 80.1993 8.72437C81.4421 8.72437 82.1431 9.34308 82.1431 10.3902V13.7774H81.2013V13.0807H81.1239C80.9668 13.3306 80.7461 13.5343 80.4845 13.671C80.2229 13.8078 79.9297 13.8727 79.6349 13.859C79.4267 13.8807 79.2164 13.8585 79.0174 13.7938C78.8184 13.7292 78.6352 13.6236 78.4795 13.4838C78.3238 13.3441 78.1991 13.1732 78.1135 12.9823C78.0279 12.7914 77.9832 12.5846 77.9824 12.3754ZM81.169 11.9518V11.5374L79.9585 11.6148C79.2758 11.6605 78.9661 11.8927 78.9661 12.3297C78.9661 12.7759 79.3532 13.0355 79.8854 13.0355C80.0413 13.0513 80.1988 13.0356 80.3486 12.9892C80.4983 12.9429 80.6372 12.8669 80.7569 12.7658C80.8767 12.6647 80.9749 12.5405 81.0457 12.4007C81.1165 12.2608 81.1584 12.1082 81.169 11.9518Z" fill="black"/>
<path d="M83.4294 11.2965C83.4294 9.73005 84.2347 8.73772 85.4872 8.73772C85.797 8.72345 86.1045 8.79765 86.3737 8.95166C86.6429 9.10567 86.8627 9.33313 87.0074 9.60744H87.0805V6.88477H88.0588V13.7773H87.1214V12.994H87.044C86.8881 13.2665 86.6606 13.4911 86.3862 13.6436C86.1118 13.796 85.8009 13.8705 85.4872 13.859C84.2261 13.859 83.4294 12.8667 83.4294 11.2965ZM84.4401 11.2965C84.4401 12.3479 84.9357 12.9806 85.7646 12.9806C86.5892 12.9806 87.0988 12.3388 87.0988 11.3008C87.0988 10.2676 86.5838 9.61662 85.7646 9.61662C84.941 9.61662 84.44 10.2536 84.44 11.2965H84.4401Z" fill="black"/>
<path d="M92.106 11.2965C92.0749 10.9707 92.1121 10.642 92.2154 10.3315C92.3187 10.021 92.4858 9.73545 92.7059 9.49327C92.9261 9.25109 93.1944 9.05759 93.4936 8.92518C93.7929 8.79276 94.1166 8.72437 94.4438 8.72437C94.7711 8.72437 95.0948 8.79276 95.394 8.92518C95.6933 9.05759 95.9616 9.25109 96.1817 9.49327C96.4019 9.73545 96.5689 10.021 96.6722 10.3315C96.7756 10.642 96.8128 10.9707 96.7817 11.2965C96.8134 11.6226 96.7766 11.9518 96.6736 12.2628C96.5705 12.5738 96.4035 12.8599 96.1834 13.1025C95.9632 13.3452 95.6947 13.5391 95.3951 13.6718C95.0955 13.8045 94.7715 13.873 94.4438 13.873C94.1162 13.873 93.7922 13.8045 93.4926 13.6718C93.193 13.5391 92.9245 13.3452 92.7043 13.1025C92.4841 12.8599 92.3172 12.5738 92.2141 12.2628C92.1111 11.9518 92.0743 11.6226 92.106 11.2965ZM95.7754 11.2965C95.7754 10.2219 95.2926 9.59354 94.4455 9.59354C93.5951 9.59354 93.1167 10.2219 93.1167 11.2965C93.1167 12.3797 93.5951 13.0032 94.4455 13.0032C95.2926 13.0032 95.7754 12.3754 95.7754 11.2965Z" fill="black"/>
<path d="M98.0945 8.81981H99.0363V9.60732H99.1094C99.2334 9.32447 99.4426 9.08737 99.7078 8.92905C99.9729 8.77074 100.281 8.6991 100.589 8.72412C100.83 8.70598 101.072 8.74235 101.297 8.83053C101.523 8.91871 101.725 9.05644 101.89 9.23351C102.055 9.41058 102.178 9.62247 102.249 9.85346C102.321 10.0845 102.34 10.3286 102.305 10.5679V13.7771H101.326V10.8136C101.326 10.0169 100.98 9.62076 100.257 9.62076C100.093 9.61314 99.9293 9.64101 99.7773 9.70247C99.6253 9.76394 99.4884 9.85754 99.376 9.97686C99.2635 10.0962 99.1782 10.2384 99.1259 10.3938C99.0736 10.5491 99.0555 10.714 99.0728 10.877V13.7771H98.0945V8.81981Z" fill="black"/>
<path d="M107.833 7.58569V8.84249H108.907V9.66656H107.833V12.2156C107.833 12.7349 108.047 12.9623 108.534 12.9623C108.659 12.9619 108.783 12.9544 108.907 12.9397V13.7546C108.731 13.7861 108.553 13.8028 108.375 13.8046C107.287 13.8046 106.854 13.4219 106.854 12.4661V9.66652H106.067V8.84244H106.854V7.58569H107.833Z" fill="black"/>
<path d="M110.243 6.88477H111.213V9.61661H111.29C111.42 9.33112 111.635 9.09268 111.906 8.93376C112.176 8.77485 112.489 8.7032 112.802 8.72857C113.042 8.71552 113.281 8.75558 113.504 8.8459C113.727 8.93622 113.927 9.07457 114.09 9.25109C114.253 9.42761 114.375 9.63794 114.447 9.86707C114.52 10.0962 114.541 10.3385 114.509 10.5767V13.7773H113.53V10.818C113.53 10.0262 113.161 9.6252 112.47 9.6252C112.301 9.61141 112.132 9.63452 111.974 9.69293C111.816 9.75134 111.672 9.84362 111.553 9.96333C111.434 10.083 111.343 10.2273 111.286 10.386C111.228 10.5446 111.206 10.7139 111.221 10.882V13.7772H110.243L110.243 6.88477Z" fill="black"/>
<path d="M120.213 12.4389C120.08 12.892 119.792 13.2839 119.4 13.5461C119.007 13.8083 118.535 13.924 118.065 13.8731C117.739 13.8817 117.414 13.8192 117.114 13.6898C116.814 13.5604 116.546 13.3673 116.328 13.1238C116.11 12.8804 115.948 12.5924 115.852 12.28C115.757 11.9675 115.731 11.638 115.775 11.3144C115.732 10.9897 115.759 10.6595 115.854 10.3461C115.949 10.0327 116.11 9.74346 116.327 9.49788C116.544 9.25229 116.811 9.05614 117.11 8.9227C117.409 8.78927 117.733 8.72166 118.061 8.72445C119.44 8.72445 120.272 9.66682 120.272 11.2235V11.5649H116.772V11.6197C116.757 11.8016 116.779 11.9847 116.839 12.1573C116.899 12.3299 116.994 12.4881 117.118 12.6218C117.242 12.7555 117.393 12.8618 117.561 12.9338C117.729 13.0058 117.91 13.0419 118.092 13.0399C118.326 13.068 118.563 13.0258 118.773 12.9188C118.983 12.8118 119.157 12.6447 119.272 12.4389L120.213 12.4389ZM116.772 10.8413H119.276C119.288 10.6749 119.266 10.5078 119.209 10.3507C119.153 10.1936 119.065 10.0499 118.95 9.929C118.835 9.80806 118.696 9.7125 118.542 9.64845C118.388 9.58441 118.222 9.55329 118.056 9.55712C117.886 9.55499 117.718 9.58676 117.562 9.65055C117.405 9.71435 117.263 9.80887 117.143 9.92855C117.023 10.0482 116.929 10.1907 116.865 10.3474C116.801 10.5042 116.77 10.6721 116.772 10.8413H116.772Z" fill="black"/>
<path d="M50.8448 28.0076H45.8447L44.644 31.5532H42.5261L47.2621 18.4355H49.4625L54.1985 31.5532H52.0445L50.8448 28.0076ZM46.3626 26.3716H50.326L48.3722 20.6174H48.3174L46.3626 26.3716Z" fill="black"/>
<path d="M64.4263 26.7717C64.4263 29.7437 62.8356 31.6532 60.4351 31.6532C59.827 31.685 59.2223 31.5449 58.6901 31.249C58.1579 30.9531 57.7198 30.5133 57.426 29.9799H57.3806V34.717H55.4175V21.9893H57.3177V23.58H57.3538C57.6611 23.0492 58.1066 22.6117 58.6428 22.314C59.1791 22.0162 59.786 21.8694 60.399 21.8892C62.8263 21.8892 64.4263 23.808 64.4263 26.7717ZM62.4086 26.7717C62.4086 24.8354 61.4079 23.5625 59.8812 23.5625C58.3812 23.5625 57.3724 24.8622 57.3724 26.7717C57.3724 28.6987 58.3812 29.9892 59.8812 29.9892C61.4079 29.9892 62.4085 28.7255 62.4085 26.7717H62.4086Z" fill="black"/>
<path d="M74.9535 26.7717C74.9535 29.7437 73.3622 31.6532 70.9617 31.6532C70.3537 31.685 69.7489 31.5449 69.2167 31.249C68.6845 30.9531 68.2465 30.5133 67.9526 29.9799H67.9072V34.717H65.9441V21.9893H67.8443V23.58H67.8804C68.1877 23.0492 68.6332 22.6117 69.1694 22.314C69.7057 22.0162 70.3126 21.8694 70.9256 21.8892C73.353 21.8892 74.9535 23.808 74.9535 26.7717ZM72.9352 26.7717C72.9352 24.8354 71.9345 23.5625 70.4078 23.5625C68.9079 23.5625 67.899 24.8622 67.899 26.7717C67.899 28.6987 68.9079 29.9892 70.4078 29.9892C71.9345 29.9892 72.9352 28.7255 72.9352 26.7717Z" fill="black"/>
<path d="M81.9092 27.8983C82.0547 29.1991 83.3184 30.0532 85.0452 30.0532C86.6999 30.0532 87.8904 29.1991 87.8904 28.0261C87.8904 27.008 87.1724 26.3983 85.4723 25.9805L83.7723 25.571C81.3635 24.9892 80.2453 23.8627 80.2453 22.0347C80.2453 19.7714 82.2177 18.2168 85.0174 18.2168C87.7903 18.2168 89.6905 19.7714 89.7544 22.0347H87.7728C87.6541 20.7256 86.572 19.9354 84.9906 19.9354C83.4091 19.9354 82.327 20.7349 82.327 21.8985C82.327 22.8259 83.0182 23.3716 84.7089 23.7894L86.1542 24.1442C88.8456 24.7807 89.9628 25.8619 89.9628 27.7806C89.9628 30.2347 88.009 31.7718 84.8997 31.7718C81.9907 31.7718 80.0265 30.2708 79.8997 27.8982L81.9092 27.8983Z" fill="black"/>
<path d="M94.2023 19.7256V21.9889H96.021V23.5435H94.2023V28.8159C94.2023 29.635 94.5665 30.0167 95.3659 30.0167C95.5818 30.0129 95.7974 29.9977 96.0117 29.9712V31.5166C95.6523 31.5837 95.2869 31.6141 94.9213 31.6073C92.9851 31.6073 92.2299 30.8801 92.2299 29.0253V23.5435H90.8394V21.9889H92.2299V19.7256H94.2023Z" fill="black"/>
<path d="M97.0725 26.7718C97.0725 23.7627 98.8448 21.8718 101.608 21.8718C104.381 21.8718 106.145 23.7627 106.145 26.7718C106.145 29.7892 104.391 31.6719 101.608 31.6719C98.8272 31.6719 97.0725 29.7892 97.0725 26.7718ZM104.145 26.7718C104.145 24.7077 103.199 23.4894 101.608 23.4894C100.018 23.4894 99.0717 24.7169 99.0717 26.7718C99.0717 28.8443 100.018 30.0533 101.608 30.0533C103.199 30.0533 104.145 28.8443 104.145 26.7718H104.145Z" fill="black"/>
<path d="M107.764 21.9894H109.637V23.6173H109.682C109.809 23.1089 110.107 22.6596 110.526 22.3449C110.945 22.0302 111.459 21.8694 111.983 21.8894C112.209 21.8886 112.434 21.9131 112.655 21.9626V23.7988C112.37 23.7116 112.072 23.6715 111.773 23.6802C111.488 23.6686 111.204 23.7189 110.94 23.8276C110.676 23.9363 110.439 24.1008 110.244 24.3098C110.05 24.5189 109.903 24.7675 109.814 25.0386C109.725 25.3097 109.695 25.597 109.728 25.8806V31.5532H107.764L107.764 21.9894Z" fill="black"/>
<path d="M121.706 28.7442C121.442 30.4804 119.751 31.6719 117.588 31.6719C114.806 31.6719 113.079 29.8078 113.079 26.8172C113.079 23.8174 114.815 21.8718 117.505 21.8718C120.151 21.8718 121.815 23.6895 121.815 26.5893V27.2619H115.061V27.3805C115.029 27.7325 115.073 28.087 115.19 28.4207C115.306 28.7543 115.492 29.0594 115.736 29.3156C115.979 29.5718 116.274 29.7733 116.601 29.9067C116.928 30.0401 117.28 30.1024 117.633 30.0894C118.097 30.1329 118.563 30.0254 118.961 29.7831C119.359 29.5407 119.668 29.1764 119.842 28.7442L121.706 28.7442ZM115.07 25.8898H119.851C119.869 25.5734 119.821 25.2567 119.71 24.9596C119.6 24.6626 119.429 24.3916 119.209 24.1636C118.988 23.9357 118.723 23.7558 118.43 23.6351C118.137 23.5145 117.822 23.4557 117.505 23.4625C117.186 23.4606 116.869 23.522 116.573 23.6432C116.277 23.7645 116.008 23.943 115.782 24.1687C115.555 24.3944 115.376 24.6627 115.254 24.9581C115.131 25.2535 115.069 25.5702 115.07 25.8899V25.8898Z" fill="black"/>
</svg>
